HIERARCHY
ROOT hip
{
	OFFSET 0.000000 0.000000 0.000000 
	CHANNELS 6 Xposition Yposition Zposition Xrotation Zrotation Yrotation
	JOINT abdomen
	{
		OFFSET 0.000000 3.402643 0.000000 
		CHANNELS 3 Xrotation Zrotation Yrotation
		JOINT chest
		{
			OFFSET 0.000000 8.438565 -0.680529 
			CHANNELS 3 Xrotation Zrotation Yrotation
			JOINT neck
			{
				OFFSET 0.000000 10.207942 -0.272212 
				CHANNELS 3 Xrotation Zrotation Yrotation
				JOINT head
				{
					OFFSET 0.000000 3.130431 0.000000 
					CHANNELS 3 Xrotation Zrotation Yrotation
					End Site
					{
						OFFSET 0.000000 3.130435 0.000000 
					}
				}
			}
			JOINT lCollar
			{
				OFFSET 3.470700 6.669187 -0.816635 
				CHANNELS 3 Yrotation Zrotation Xrotation
				JOINT lShldr
				{
					OFFSET 3.198488 0.000000 0.000000 
					CHANNELS 3 Zrotation Yrotation Xrotation
					JOINT lForeArm
					{
						OFFSET 10.139888 0.000000 0.000000 
						CHANNELS 3 Yrotation Zrotation Xrotation
						JOINT lHand
						{
							OFFSET 8.370511 0.000000 0.000000 
							CHANNELS 3 Zrotation Yrotation Xrotation
							End Site
							{
								OFFSET 4.083176 0.000000 0.000000 
							}
						}
					}
				}
			}
			JOINT rCollar
			{
				OFFSET -3.470700 6.669187 -0.816635 
				CHANNELS 3 Yrotation Zrotation Xrotation
				JOINT rShldr
				{
					OFFSET -3.198488 0.000000 0.000000 
					CHANNELS 3 Zrotation Yrotation Xrotation
					JOINT rForeArm
					{
						OFFSET -10.139888 0.000000 0.000000 
						CHANNELS 3 Yrotation Zrotation Xrotation
						JOINT rHand
						{
							OFFSET -8.370511 0.000000 0.000000 
							CHANNELS 3 Zrotation Yrotation Xrotation
							End Site
							{
								OFFSET -4.083176 0.000000 0.000000 
							}
						}
					}
				}
			}
		}
	}
	JOINT lThigh
	{
		OFFSET 5.308129 -1.633274 1.361059 
		CHANNELS 3 Xrotation Zrotation Yrotation
		JOINT lShin
		{
			OFFSET -2.041588 -20.007561 0.000000 
			CHANNELS 3 Xrotation Zrotation Yrotation
			JOINT lFoot
			{
				OFFSET 0.000000 -19.190928 -1.224953 
				CHANNELS 3 Xrotation Yrotation Zrotation
				End Site
				{
					OFFSET 0.000000 -2.449906 4.627600 
				}
			}
		}
	}
	JOINT rThigh
	{
		OFFSET -5.308129 -1.633274 1.361059 
		CHANNELS 3 Xrotation Zrotation Yrotation
		JOINT rShin
		{
			OFFSET 2.041588 -20.007561 0.000000 
			CHANNELS 3 Xrotation Zrotation Yrotation
			JOINT rFoot
			{
				OFFSET 0.000000 -19.190928 -1.224953 
				CHANNELS 3 Xrotation Yrotation Zrotation
				End Site
				{
					OFFSET 0.000000 -2.449906 4.627600 
				}
			}
		}
	}
}
MOTION
Frames: 15
Frame Time: 0.033333
7.988475 52.868828 95.380821 9.667969 1.542969 5.361567 15.730832 -14.111914 2.498674 -17.871094 14.042969 7.519532 51.063168 8.107644 2.471410 -42.021484 -10.830078 -10.810548 2.000000 -2.000000 0.000000 -89.335938 15.449219 -6.901696 -29.830046 -2.516898 -1.110107 19.620136 54.029587 34.524136 -2.000000 2.000000 0.000000 89.882813 -15.048828 -7.021484 45.453632 1.851543 -1.776046 -2.992649 -42.089493 7.255099 -44.883148 7.500291 -12.354226 59.064560 -2.568384 -5.121790 28.842110 -6.659864 1.114537 -1.629943 -4.303135 -9.452578 9.254370 5.154447 0.305223 -5.746613 12.807011 2.412957 
8.049259 52.711266 96.483253 9.492188 1.386719 3.750000 14.421466 -14.516102 4.427830 -17.871094 14.042969 7.519532 51.063168 8.107644 2.471410 -40.927738 -10.546874 -11.494142 2.000000 -2.000000 0.000000 -90.849609 19.365232 -11.484375 -30.720047 -2.500264 -1.159981 19.138021 56.150013 36.010342 -2.000000 2.000000 0.000000 88.554688 -14.726564 -5.498047 45.629417 1.851543 -1.776046 -4.454683 -42.816612 8.184576 -45.194584 8.486250 -14.273039 53.439987 -3.177854 -4.822302 26.204172 -5.708442 -0.250514 -0.781036 -4.008936 -8.761691 9.778399 5.103729 0.842650 -6.315335 13.464067 2.393414 
8.145133 52.537945 97.593552 9.667969 1.210938 1.963097 13.102247 -14.483006 6.259432 -17.861328 14.218750 7.734375 51.063168 8.107644 2.471410 -39.843750 -10.253904 -12.148439 2.000000 -2.000000 0.000000 -92.626953 22.812500 -16.015627 -32.112354 -2.218670 -1.362724 18.474123 58.188950 36.363426 -2.000000 2.000000 0.000000 87.675781 -13.955080 -4.804688 45.629433 1.841794 -1.776614 -5.387577 -43.582413 8.603897 -44.915955 9.277765 -17.384956 47.313084 -3.603476 -3.964846 22.542740 -5.628887 -0.621778 0.175180 -4.132391 -7.175848 10.172901 5.680640 0.399491 -6.628782 13.586022 2.275230 
8.285148 52.396145 98.713936 9.648438 0.849609 0.322410 11.576848 -14.268277 8.089857 -17.675781 14.199219 7.783204 51.063168 8.107644 2.471410 -38.759769 -10.136718 -12.832032 2.000000 -2.000000 0.000000 -94.287109 25.673828 -20.650066 -34.048382 -2.175069 -1.453292 18.649450 59.296738 37.562584 -2.000000 2.000000 0.000000 86.406250 -12.753907 -4.396688 45.629433 1.841794 -1.776614 -5.824177 -44.072945 9.150144 -43.928135 10.283755 -20.631016 40.459045 -4.056036 -3.568167 17.843531 -5.371417 -0.644161 1.044465 -4.071223 -6.150011 10.532075 5.474992 0.640147 -6.829989 14.309731 2.321878 
8.505663 52.230709 99.879211 10.019531 0.507813 -1.318271 10.055022 -14.018400 9.892816 -17.675781 14.199219 7.783204 51.063168 8.107644 2.471410 -37.695313 -10.009765 -13.507557 2.000000 -2.000000 0.000000 -95.136719 28.164061 -24.707029 -35.632332 -2.130322 -1.524369 18.488922 60.437023 38.590912 -2.000000 2.000000 0.000000 85.507813 -11.503907 -3.986322 45.629433 1.841794 -1.776614 -6.133215 -44.387157 9.464693 -43.216038 11.201791 -23.248751 33.768944 -4.349823 -3.577289 14.704733 -4.195426 -0.563201 1.901853 -4.145896 -4.937008 10.705755 5.649813 0.687987 -6.830626 14.631983 2.137177 
8.847305 52.088909 101.121902 10.371094 0.341797 -2.929685 8.552665 -13.678226 11.486099 -17.675781 14.199219 7.958985 51.063168 8.107644 2.471410 -36.621098 -10.058594 -14.042969 2.000000 -2.000000 0.000000 -95.107422 30.546873 -27.651283 -36.688099 -2.113108 -1.564494 19.467985 61.395348 40.607792 -2.000000 2.000000 0.000000 84.218750 -10.712892 -3.605331 45.629433 1.841794 -1.776614 -6.355931 -44.193138 9.900456 -42.711533 11.758196 -26.056013 28.489803 -4.725716 -2.879498 15.000209 -3.026172 -1.200844 2.701393 -4.428649 -3.724380 10.709394 5.651864 0.522534 -6.108168 15.184071 2.242184 
9.301393 51.891945 102.421288 10.888672 0.000000 -4.228515 7.271007 -13.411860 12.858180 -17.675781 14.199219 7.958985 51.063168 8.107644 2.471410 -35.722660 -10.087890 -14.199220 2.000000 -2.000000 0.000000 -93.916016 32.314453 -29.912109 -37.567425 -1.908380 -1.576504 20.725447 62.312279 42.796650 -2.000000 2.000000 0.000000 82.832031 -9.628906 -3.146163 45.981277 1.832615 -1.786929 -6.767711 -43.590187 10.334992 -42.869617 11.787212 -27.639105 25.299711 -4.872529 -2.644812 20.659672 -2.157573 -2.194804 3.739174 -4.628996 -2.686126 10.705542 5.659214 0.523133 -5.309871 15.523447 2.276593 
9.878986 51.726513 103.752289 11.230468 -0.175781 -5.312500 6.265394 -13.157939 13.864861 -17.685549 14.033204 7.919922 51.063168 8.107644 2.471410 -35.195316 -10.273437 -13.994143 2.000000 -2.000000 0.000000 -92.666016 33.027344 -32.021484 -38.095310 -1.899773 -1.596567 22.271252 62.631851 45.123337 -2.000000 2.000000 0.000000 81.318359 -8.359375 -1.915480 46.333138 1.813687 -1.797811 -7.083416 -42.635178 10.725041 -43.361881 11.271217 -28.723196 23.180841 -4.960291 -2.445396 29.964828 -1.698186 -3.262614 4.310429 -5.343862 -2.239431 11.071558 5.025160 1.118678 -3.714705 16.724308 2.661161 
10.430332 51.490162 105.088127 11.777344 -0.361328 -6.074281 5.592533 -12.859065 14.368856 -17.871094 14.042969 7.871095 51.063168 8.107644 2.471410 -34.863285 -10.800780 -13.310549 2.000000 -2.000000 0.000000 -91.474609 32.343750 -34.652977 -37.919525 -1.899773 -1.596567 24.601326 62.387714 47.296021 -2.000000 2.000000 0.000000 79.785156 -7.031250 -0.957031 46.685242 1.805077 -1.817871 -7.263181 -41.532845 11.030150 -43.446167 10.615438 -28.804390 22.497042 -4.921253 -2.740765 39.403191 -0.982914 -4.578874 5.652568 -5.438179 -1.022687 10.714598 4.732282 0.863140 -2.333986 15.502515 2.270457 
11.043288 51.285343 106.454399 12.294923 -0.361328 -6.591858 5.191056 -12.936399 14.498404 -18.056641 13.886718 7.978516 51.063168 8.107644 2.471410 -35.048828 -11.455077 -12.421877 2.000000 -2.000000 0.000000 -89.921875 30.800783 -37.075073 -37.387634 -2.085615 -1.429202 27.486629 61.891254 49.224476 -2.000000 2.000000 0.000000 78.671875 -5.732422 0.009766 47.212868 1.795898 -1.828185 -7.258008 -40.429241 11.141530 -42.333912 10.607665 -28.384472 20.724245 -4.983066 -2.769282 48.395626 -0.410559 -5.293942 7.232730 -6.315896 -0.444255 9.134845 4.762292 0.924161 -0.283469 14.848941 1.815860 
11.702392 51.387753 107.704254 12.822267 -0.361328 -6.601624 5.351027 -13.231232 13.954597 -18.417969 13.916017 7.880859 51.063168 8.107644 2.471410 -36.142582 -11.767576 -11.074221 2.000000 -2.000000 0.000000 -87.714844 28.935547 -38.730469 -37.045933 -2.164177 -1.434373 28.703268 61.174267 49.373379 -2.000000 2.000000 0.000000 78.388672 -5.048828 0.311642 47.741051 1.768359 -1.859128 -7.066442 -39.353687 10.792474 -40.861202 10.372529 -25.928205 24.245127 -4.833476 -3.034957 34.141994 0.256278 -5.344173 9.139815 -7.373365 -0.792765 7.010949 4.803306 0.590516 3.098772 14.558321 0.716751 
10.666547 51.742264 111.490654 13.339845 0.000000 -6.162109 5.918106 -14.098250 12.680861 -19.150391 13.779297 7.512092 51.063168 8.107644 2.471410 -38.125004 -11.699219 -9.599610 2.000000 -2.000000 0.000000 -84.658203 26.923826 -39.058079 -37.035580 -2.074723 -1.410283 28.405161 60.666206 47.730003 -2.000000 2.000000 0.000000 79.648438 -5.341797 -0.380859 48.444740 1.750000 -1.879756 -6.846185 -39.127632 9.887525 -34.509987 12.226548 -22.562847 18.785292 -5.106730 -2.100353 16.192261 -0.048104 -4.024192 11.119360 -8.308238 -2.419636 4.362467 4.810747 0.505863 8.188436 14.040992 -0.881384 
10.779833 51.994366 113.643921 13.710938 0.498047 -4.990234 7.510440 -15.113245 10.177646 -20.253906 13.662109 7.226563 51.063168 8.107644 2.471410 -41.279301 -10.361329 -8.232424 2.000000 -2.000000 0.000000 -80.644531 25.058594 -38.941181 -37.573658 -2.223813 -1.450432 27.073095 59.932388 44.485737 -2.000000 2.000000 0.000000 81.718750 -7.089843 -1.748047 49.496868 1.852113 -1.785792 -6.207656 -38.928440 8.109884 -31.543743 11.435439 -20.380182 16.493414 -5.152921 -1.894036 11.004217 -0.953693 -3.303062 14.359196 -9.439983 -4.188344 -0.380735 4.872045 0.126045 14.545790 12.822935 -4.553620 
11.139715 52.293724 115.723953 14.228516 1.181641 -3.222455 9.647667 -16.628290 6.776693 -21.542971 13.388672 6.689453 51.063168 8.107644 2.471410 -45.419926 -8.183594 -7.294923 2.000000 -2.000000 0.000000 -75.859375 23.320313 -37.339882 -38.101803 -2.215778 -1.480240 25.371195 59.581757 41.428959 -2.000000 2.000000 0.000000 84.580078 -9.199219 -2.246094 50.028667 1.724738 -1.949680 -5.521626 -38.807583 6.789819 -28.731392 9.697367 -20.467720 14.050818 -5.191792 -2.199409 7.339293 -1.525932 -4.068049 18.245918 -10.055811 -7.795627 -6.487653 4.858971 -0.356272 22.052452 11.318200 -8.456644 
11.631109 52.553707 117.796440 14.746092 2.031250 -0.693359 12.229108 -17.821608 2.670075 -22.802732 13.271485 6.193649 51.063168 8.107644 2.471410 -50.029297 -5.722656 -6.425782 2.000000 -2.000000 0.000000 -70.205078 21.904297 -33.590107 -38.622456 -1.723151 -1.587371 21.858583 59.121796 37.433079 -2.000000 2.000000 0.000000 87.558594 -11.044923 -2.412109 49.676819 1.733918 -1.939366 -4.686417 -38.735439 5.633048 -26.095028 7.686210 -22.847727 10.835270 -5.327669 -1.434169 5.427756 -1.798741 -6.237484 13.852645 -11.101341 -10.472034 1.190412 4.828444 0.261825 32.912914 6.283279 -13.710413 
